<?xml version="1.0" encoding="utf-8"?>
<!-- Generator: Adobe Illustrator 26.3.1, SVG Export Plug-In . SVG Version: 6.00 Build 0)  -->
<svg version="1.1" id="Layer_1" xmlns="http://www.w3.org/2000/svg" xmlns:xlink="http://www.w3.org/1999/xlink" x="0px" y="0px"
	 viewBox="0 0 1560 1200" style="enable-background:new 0 0 1560 1200;" xml:space="preserve">
<style type="text/css">
	.st0{fill:#28235D;}
	.st1{fill:url(#SVGID_1_);}
	.st2{fill:#2B3A72;}
	.st3{fill:#29255E;}
	.st4{fill:#2A336B;}
	.st5{fill:#2A2860;}
	.st6{fill:#2B2E67;}
	.st7{fill:#2A356E;}
	.st8{fill:#29235D;}
	.st9{fill:#29255F;}
	.st10{fill:#2B2D66;}
	.st11{fill:#2A2B63;}
	.st12{fill:#2C4D85;}
	.st13{fill:#2B437B;}
	.st14{fill:#2B3871;}
	.st15{fill:#2A2A62;}
	.st16{fill:#2B3E76;}
	.st17{fill:#2A2961;}
	.st18{fill:#2C4C85;}
	.st19{fill:#2A265E;}
	.st20{fill:#282A63;}
	.st21{fill:#282E67;}
	.st22{fill:#27356E;}
	.st23{fill:#2B3069;}
	.st24{fill:#2A2660;}
	.st25{fill:#2C386F;}
	.st26{fill:#2B3068;}
	.st27{fill:#292660;}
	.st28{fill:#2A265F;}
	.st29{fill:#2A2762;}
	.st30{fill:#29306A;}
	.st31{fill:#283870;}
	.st32{fill:#263D77;}
	.st33{fill:#2B538C;}
	.st34{fill:#26306B;}
	.st35{fill:#2A639B;}
	.st36{fill:#233974;}
	.st37{fill:#243570;}
	.st38{fill:#28528C;}
	.st39{fill:#223C78;}
	.st40{fill:#254D87;}
	.st41{fill:#25356E;}
	.st42{fill:#2A2962;}
	.st43{fill:#2B366F;}
	.st44{fill:#2A3770;}
	.st45{fill:#2B2962;}
	.st46{fill:#283771;}
	.st47{fill:#27336C;}
	.st48{fill:#273E77;}
	.st49{fill:#244681;}
	.st50{fill:#233A75;}
	.st51{fill:#25407A;}
	.st52{fill:#23528D;}
	.st53{fill:#224D88;}
	.st54{fill:#274F87;}
	.st55{fill:#224580;}
	.st56{fill:#234681;}
	.st57{fill:#265992;}
	.st58{fill:#25437D;fill-opacity:0.9;}
	.st59{fill:#233C78;}
	.st60{fill:#254F88;}
	.st61{fill:#255690;}
	.st62{fill:#2A4078;}
	.st63{fill:#2A2F68;}
	.st64{fill:#2C2F69;}
	.st65{fill:#2C4A82;}
	.st66{fill:#2A2C65;}
	.st67{fill:#262B65;}
	.st68{fill:#265089;}
	.st69{fill:#273D77;}
	.st70{fill:#25407B;}
	.st71{fill:#264C85;}
	.st72{fill:#24427D;}
	.st73{fill:#21427D;}
	.st74{fill:#21417E;}
	.st75{fill:#244A85;}
	.st76{fill:#1D4D89;}
	.st77{fill:#1F4D89;}
	.st78{fill:#1F508D;}
	.st79{fill:#1F4681;}
	.st80{fill:#1D4885;}
	.st81{fill:#1E4682;}
	.st82{fill:#204C88;}
	.st83{fill:#1F4984;}
	.st84{fill:#234D87;}
	.st85{fill:#26457F;}
	.st86{fill:#23447E;}
	.st87{fill:#263C77;}
	.st88{fill:#274A83;}
	.st89{fill:#26346E;}
	.st90{fill:#2A356F;}
	.st91{fill:#2A3068;}
	.st92{fill:#2A316A;}
	.st93{fill:#2C4F88;}
	.st94{fill:#2B3F77;}
	.st95{fill:#2B5E97;}
	.st96{fill:#2B417A;}
	.st97{fill:#25336E;}
	.st98{fill:#25457F;}
	.st99{fill:#244882;}
	.st100{fill:#21427F;}
	.st101{fill:#244A84;}
	.st102{fill:#20619D;}
	.st103{fill:#246DA8;}
	.st104{fill:#1F65A1;}
	.st105{fill:#1F4884;}
	.st106{fill:#225994;}
	.st107{fill:#1B508D;}
	.st108{fill:#2476B1;}
	.st109{fill:#1A5390;}
	.st110{fill:#205C97;}
	.st111{fill:#224B87;}
	.st112{fill:#223D78;}
	.st113{fill:#21447F;}
	.st114{fill:#224882;}
	.st115{fill:#24437E;}
	.st116{fill:#2A558E;}
	.st117{fill:#29447C;}
	.st118{fill:#2A356D;}
	.st119{fill:#29265F;}
	.st120{fill:#2A3169;}
	.st121{fill:#2A2B64;}
	.st122{fill:#27437C;}
	.st123{fill:#293C74;}
	.st124{fill:#24336D;}
	.st125{fill:#27467F;}
	.st126{fill:#243F7A;}
	.st127{fill:#213F7A;}
	.st128{fill:#215591;}
	.st129{fill:#1E5793;}
	.st130{fill:#1E5A96;}
	.st131{fill:#1D5693;}
	.st132{fill:#1B5693;}
	.st133{fill:#1E538F;}
	.st134{fill:#195E9B;}
	.st135{fill:#1B5895;}
	.st136{fill:#1D5F9B;}
	.st137{fill:#1865A4;}
	.st138{fill:#185C9B;}
	.st139{fill:#1D5590;}
	.st140{fill:#1A619E;}
	.st141{fill:#204B86;}
	.st142{fill:#22508B;}
	.st143{fill:#22558F;}
	.st144{fill:#24407B;}
	.st145{fill:#1F5691;}
	.st146{fill:#20437E;}
	.st147{fill:#22528D;}
	.st148{fill:#24447E;}
	.st149{fill:#253B75;}
	.st150{fill:#28427C;}
	.st151{fill:#2A2760;}
	.st152{fill:#2C336B;}
	.st153{fill:#292861;}
	.st154{fill:#292760;}
	.st155{fill:#294179;}
	.st156{fill:#29528B;}
	.st157{fill:#253C77;}
	.st158{fill:#253C76;}
	.st159{fill:#224480;}
	.st160{fill:#1E4581;}
	.st161{fill:#1D5995;}
	.st162{fill:#1F4985;}
	.st163{fill:#214581;}
	.st164{fill:#237AB5;}
	.st165{fill:#1C5F9B;}
	.st166{fill:#1D6BA8;}
	.st167{fill:#1D629E;}
	.st168{fill:#1A6FAB;}
	.st169{fill:#146BA9;}
	.st170{fill:#1866A3;}
	.st171{fill:#1C66A2;}
	.st172{fill:#185B99;}
	.st173{fill:#1F6CA6;}
	.st174{fill:#1F79B5;}
	.st175{fill:#2279B5;}
	.st176{fill:#1963A0;}
	.st177{fill:#22417C;}
	.st178{fill:#1A5694;}
	.st179{fill:#234D88;}
	.st180{fill:#1C4F8C;}
	.st181{fill:#214F8A;}
	.st182{fill:#254D86;}
	.st183{fill:#2C4C84;}
	.st184{fill:#2A2E66;}
	.st185{fill:#292761;}
	.st186{fill:#293E76;}
	.st187{fill:#244D88;}
	.st188{fill:#283C77;}
	.st189{fill:#2967A1;}
	.st190{fill:#204883;}
	.st191{fill:#1D518D;}
	.st192{fill:#1D4986;}
	.st193{fill:#1C5390;}
	.st194{fill:#175B99;}
	.st195{fill:#166EAB;}
	.st196{fill:#176DAA;}
	.st197{fill:#1869A6;}
	.st198{fill:#1D619E;}
	.st199{fill:#16619F;}
	.st200{fill:#1472B0;}
	.st201{fill:#1E88C5;}
	.st202{fill:#167AB8;}
	.st203{fill:#166EAC;}
	.st204{fill:#1A76B2;}
	.st205{fill:#1368A7;}
	.st206{fill:#1C67A2;}
	.st207{fill:#1B5390;}
	.st208{fill:#1A609E;}
	.st209{fill:#206EAA;}
	.st210{fill:#1F518D;}
	.st211{fill:#22528C;}
	.st212{fill:#224983;}
	.st213{fill:#262A64;}
	.st214{fill:#242F6A;}
	.st215{fill:#223A75;}
	.st216{fill:#204582;}
	.st217{fill:#25518B;}
	.st218{fill:#24619B;}
	.st219{fill:#2265A0;}
	.st220{fill:#1B629D;}
	.st221{fill:#1B609C;}
	.st222{fill:#165C9A;}
	.st223{fill:#1667A4;}
	.st224{fill:#1474B2;}
	.st225{fill:#1269A8;}
	.st226{fill:#185C9A;}
	.st227{fill:#1873B0;}
	.st228{fill:#166CAB;}
	.st229{fill:#116FAF;}
	.st230{fill:#0E76B6;}
	.st231{fill:#0F74B4;}
	.st232{fill:#1071B1;}
	.st233{fill:#1C7BB7;}
	.st234{fill:#1C67A3;}
	.st235{fill:#166AA8;}
	.st236{fill:#1E6AA5;}
	.st237{fill:#22548F;}
	.st238{fill:#1E417E;}
	.st239{fill:#2D538B;}
	.st240{fill:#2C4078;}
	.st241{fill:#27265F;}
	.st242{fill:#2E5992;}
	.st243{fill:#273B73;}
	.st244{fill:#253871;}
	.st245{fill:#234781;}
	.st246{fill:#1C4E8B;}
	.st247{fill:#1C5894;}
	.st248{fill:#1C5793;}
	.st249{fill:#1C629E;}
	.st250{fill:#1E7CB8;}
	.st251{fill:#146DAB;}
	.st252{fill:#1570AE;}
	.st253{fill:#1C75B0;}
	.st254{fill:#1075B7;}
	.st255{fill:#0B87C8;}
	.st256{fill:#197BB8;}
	.st257{fill:#1467A6;}
	.st258{fill:#136EAD;}
	.st259{fill:#1877B4;}
	.st260{fill:#1482C1;}
	.st261{fill:#1E7FBB;}
	.st262{fill:#1374B3;}
	.st263{fill:#1F66A0;}
	.st264{fill:#1661A0;}
	.st265{fill:#1D4782;}
	.st266{fill:#1E5690;}
	.st267{fill:#2A2A64;}
	.st268{fill:#28427B;}
	.st269{fill:#29467E;}
	.st270{fill:#273973;}
	.st271{fill:#225792;}
	.st272{fill:#2365A0;}
	.st273{fill:#1B5692;}
	.st274{fill:#175E9B;}
	.st275{fill:#1A5D9A;}
	.st276{fill:#146FAD;}
	.st277{fill:#195694;}
	.st278{fill:#1177B6;}
	.st279{fill:#1763A0;}
	.st280{fill:#1366A4;}
	.st281{fill:#0F7EBE;}
	.st282{fill:#0A87C7;}
	.st283{fill:#1566A5;}
	.st284{fill:#176CAA;}
	.st285{fill:#156FAE;}
	.st286{fill:#1382C0;}
	.st287{fill:#1572B1;}
	.st288{fill:#1579B7;}
	.st289{fill:#1C7CB8;}
	.st290{fill:#156EAD;}
	.st291{fill:#1C5592;}
	.st292{fill:#1C5794;}
	.st293{fill:#1E68A4;}
	.st294{fill:#20639D;}
	.st295{fill:#29235C;}
	.st296{fill:#2A255E;}
	.st297{fill:#2A3C74;}
	.st298{fill:#2A2761;}
	.st299{fill:#25336D;}
	.st300{fill:#263E78;}
	.st301{fill:#203D78;}
	.st302{fill:#1D4E8C;}
	.st303{fill:#1867A4;}
	.st304{fill:#1A5F9D;}
	.st305{fill:#2171AC;}
	.st306{fill:#1473B1;}
	.st307{fill:#1E8AC6;}
	.st308{fill:#126FAF;}
	.st309{fill:#0C7FC1;}
	.st310{fill:#0988CA;}
	.st311{fill:#0595D8;}
	.st312{fill:#119BDD;}
	.st313{fill:#0F77B7;}
	.st314{fill:#0C9ADB;}
	.st315{fill:#1080BE;}
	.st316{fill:#078ED1;}
	.st317{fill:#0C85C5;}
	.st318{fill:#0C7EBF;}
	.st319{fill:#185694;}
	.st320{fill:#1A5C9A;}
	.st321{fill:#1D5A96;}
	.st322{fill:#215993;}
	.st323{fill:#1A5695;}
	.st324{fill:#273069;}
	.st325{fill:#282B64;}
	.st326{fill:#233F79;}
	.st327{fill:#24417C;}
	.st328{fill:#225590;}
	.st329{fill:#224F8A;}
	.st330{fill:#1A528E;}
	.st331{fill:#1E69A6;}
	.st332{fill:#186AA8;}
	.st333{fill:#1D619D;}
	.st334{fill:#1C508D;}
	.st335{fill:#146DAC;}
	.st336{fill:#117BBA;}
	.st337{fill:#1680BD;}
	.st338{fill:#1468A7;}
	.st339{fill:#0E80C0;}
	.st340{fill:#088DD1;}
	.st341{fill:#0F85C4;}
	.st342{fill:#1098D8;}
	.st343{fill:#118AC9;}
	.st344{fill:#1077B6;}
	.st345{fill:#0D8BCC;}
	.st346{fill:#0F79B9;}
	.st347{fill:#1674B3;}
	.st348{fill:#1A5693;}
	.st349{fill:#1569A8;}
	.st350{fill:#1D518E;}
	.st351{fill:#1D4C88;}
	.st352{fill:#272962;}
	.st353{fill:#2B2A63;}
	.st354{fill:#274079;}
	.st355{fill:#25528B;}
	.st356{fill:#25508A;}
	.st357{fill:#224681;}
	.st358{fill:#1D4E8B;}
	.st359{fill:#224A85;}
	.st360{fill:#205792;}
	.st361{fill:#1B5291;}
	.st362{fill:#166BA9;}
	.st363{fill:#1468A6;}
	.st364{fill:#1376B6;}
	.st365{fill:#0E77B7;}
	.st366{fill:#0D7ABB;}
	.st367{fill:#0B85C6;}
	.st368{fill:#0B8ACB;}
	.st369{fill:#1773B1;}
	.st370{fill:#1184C3;}
	.st371{fill:#1768A7;}
	.st372{fill:#0A8ECF;}
	.st373{fill:#0E82C3;}
	.st374{fill:#167BB8;}
	.st375{fill:#1E5895;}
	.st376{fill:#1272B1;}
	.st377{fill:#196EAA;}
	.st378{fill:#2268A2;}
	.st379{fill:#1C5693;}
	.st380{fill:#283C76;}
	.st381{fill:#25447E;}
	.st382{fill:#244983;}
	.st383{fill:#234E88;}
	.st384{fill:#1C6FAC;}
	.st385{fill:#2175B0;}
	.st386{fill:#1E66A2;}
	.st387{fill:#1A5592;}
	.st388{fill:#1E8BC7;}
	.st389{fill:#116DAD;}
	.st390{fill:#0C7DBE;}
	.st391{fill:#176DAC;}
	.st392{fill:#1481BF;}
	.st393{fill:#0B80C0;}
	.st394{fill:#1275B4;}
	.st395{fill:#0E7DBD;}
	.st396{fill:#117CBC;}
	.st397{fill:#1472B1;}
	.st398{fill:#1D66A2;}
	.st399{fill:#2073AF;}
	.st400{fill:#1D6DAA;}
	.st401{fill:#1F4F8C;}
	.st402{fill:#1B5694;}
	.st403{fill:#195C99;}
	.st404{fill:#185F9D;}
	.st405{fill:#146FAE;}
	.st406{fill:#1A66A3;}
	.st407{fill:#136DAD;}
	.st408{fill:#1A5C98;}
	.st409{fill:#117DBC;}
	.st410{fill:#1A6CA8;}
	.st411{fill:#1B65A2;}
	.st412{fill:#1478B6;}
	.st413{fill:#1D5692;}
	.st414{fill:#1775B3;}
	.st415{fill:#126BA9;}
	.st416{fill:#18619F;}
	.st417{fill:#166CAA;}
	.st418{fill:#1A6AA7;}
	.st419{fill:#1E609B;}
	.st420{fill:#185A98;}
	.st421{fill:#1C66A3;}
	.st422{fill:#1E7FBC;}
	.st423{fill:#1E6FAA;}
	.st424{fill:#2083C0;}
	.st425{fill:#136CAD;}
	.st426{fill:#1E4B87;}
	.st427{fill:#1469A7;}
	.st428{fill:#1D5E9A;}
	.st429{fill:#166EAD;}
	.st430{fill:#165F9D;}
	.st431{fill:#2269A3;}
	.st432{fill:#1E639F;}
	.st433{fill:#1B5C99;}
	.st434{fill:#1B6AA6;}
	.st435{fill:#1E74B0;}
	.st436{fill:#166AA9;}
	.st437{fill:#16609E;}
	.st438{fill:#19619E;}
	.st439{fill:#1F538E;}
	.st440{fill:#234F8A;}
	.st441{fill:#1C4C89;}
	.st442{fill:#215892;}
	.st443{fill:#1C4885;}
	.st444{fill:#2C548D;}
	.st445{fill:#2C467E;}
	.st446{fill:#2B2B64;}
</style>
<path class="st0" d="M-149-114.5h1858v1429H-149V-114.5z"/>
<radialGradient id="SVGID_1_" cx="208.8526" cy="472.9336" r="864" gradientTransform="matrix(-1.078 0 0 1.1414 1293.0203 255.306)" gradientUnits="userSpaceOnUse">
	<stop  offset="0" style="stop-color:#009FE3"/>
	<stop  offset="1" style="stop-color:#29235C"/>
</radialGradient>
<path class="st1" d="M1570,1210H-10V-10h1580V1210z"/>
<path class="st2" d="M126.2-75.8L28.4-44.4l73.8,61.6C102.2,17.2,126.2-75.8,126.2-75.8z M-69.3-13l-24,93L4.5,48.7L-69.3-13z
	 M347.4,109l-97.7,31.4l73.8,61.6l24-93H347.4z M201.7,326.7L104,358l73.7,61.6l24-93V326.7z M157.4,1194.7L59.8,1226l73.8,61.6
	l24-93L157.4,1194.7z"/>
<path class="st0" d="M-69.3-13L4.5,48.7l24-93L-69.3-13z"/>
<path class="st3" d="M28.4-44.4l-24,93l97.7-31.4L28.3-44.4H28.4z M179.6,760.6L82,792l73.8,61.6l24-93H179.6z"/>
<path class="st4" d="M4.5,48.7L-93.3,80l73.8,61.6L4.5,48.7L4.5,48.7z M129.8,606L32,637.4l74,61.6l24-93H129.8z"/>
<path class="st5" d="M4.5,48.7l-24,93l97.7-31.4L4.5,48.7z M30.3,296.5L-67.4,328l73.7,61.6l24-93L30.3,296.5z"/>
<path class="st6" d="M78.2,110.3l24-93L176,79L78.2,110.3z"/>
<path class="st7" d="M4.5,48.7l73.8,61.6l24-93L4.5,48.7z"/>
<path class="st8" d="M200-14.2l-97.7,31.4L176,79l24-93V-14.2z M249.8,140.5L152,172l73.8,61.6l24-93V140.5z"/>
<path class="st9" d="M176,79l24-93l73.7,61.6L176,79z"/>
<path class="st10" d="M297.6-45.6l-24,93L371.4,16l-73.7-61.6H297.6z M176,79l-97.7,31.4L152,172L176,79z"/>
<path class="st11" d="M297.6-45.6L200-14.2l73.8,61.6l24-93L297.6-45.6z M469-15.4L371.4,16L445,77.6C445,77.6,469-15.4,469-15.4z
	 M273.6,47.6L176,79l73.8,61.6l24-93L273.6,47.6z"/>
<path class="st12" d="M-43.5,235l24-93l73.7,61.6L-43.5,235z"/>
<path class="st13" d="M78.2,110.3l-97.7,31.4l73.8,61.6l24-93L78.2,110.3z M82,792l-97.7,31.4L58,885.2l24-93V792z M131.8,946.7
	l-24,93l97.7-31.4L131.8,946.7L131.8,946.7z"/>
<path class="st14" d="M78.2,110.3l-24,93L152,172l-73.7-61.6L78.2,110.3z M56.2,544.3l-97.7,31.4L32,637.4l24-93L56.2,544.3z"/>
<path class="st15" d="M176,79l-24,93l97.7-31.4L176,79z M104,358L6.3,389.6L80,451.2l24-93V358z"/>
<path class="st16" d="M273.7,47.4l-24,93l97.7-31.4C347.4,109,273.7,47.4,273.7,47.4z M-15.8,823.4l-24,93L58,885.2l-73.7-61.6
	L-15.8,823.4z"/>
<path class="st17" d="M371.4,16l-24,93L445,77.6L371.4,16z M128,265l-97.7,31.4L104,358L128,265z M83.7,1133l-97.7,31.4l73.8,61.6
	l24-93H83.7z"/>
<path class="st18" d="M371.4,16l-97.7,31.4l73.8,61.6l24-93H371.4z M-63.6,1009.7l-24,93l97.7-31.4L-63.6,1009.7L-63.6,1009.7z"/>
<path class="st19" d="M445,77.6l24-93l73.7,61.6L445,77.6z"/>
<path class="st20" d="M566.8-47l-24,93l97.7-31.4L566.8-47z M323.4,202l-24,93l97.7-31.4L323.4,202L323.4,202z"/>
<path class="st21" d="M566.8-47l73.8,61.6l24-93L566.8-47z"/>
<path class="st22" d="M640.6,14.8l24-93l73.7,61.6L640.6,14.8z"/>
<path class="st23" d="M-43.5,235l-24,93l97.7-31.4L-43.5,235z M107.7,1040l-24,93l97.7-31.4l-73.8-61.6H107.7z"/>
<path class="st24" d="M-43.5,235l73.8,61.6l24-93L-43.5,235z"/>
<path class="st25" d="M30.3,296.5l24-93L128,265L30.3,296.5z"/>
<path class="st26" d="M128,265l24-93l73.7,61.6L128,265z"/>
<path class="st27" d="M54.2,203.4L128,265l24-93L54.2,203.4z"/>
<path class="st28" d="M249.7,140.5l-24,93l97.7-31.4L249.7,140.5z M323.5,202.1l-97.7,31.4l73.7,61.6L323.5,202.1z M128,265l-24,93
	l97.7-31.4L128,265z M83.7,1133l-24,93l97.7-31.4L83.6,1133H83.7z"/>
<path class="st29" d="M323.4,202.2l24-93l73.7,61.6L323.4,202.2z"/>
<path class="st30" d="M347.4,109l73.8,61.6l24-93L347.4,109z"/>
<path class="st31" d="M445,77.6l-24,93l97.7-31.4L445,77.6z M203.5,667.6l-24,93l97.7-31.4L203.5,667.6L203.5,667.6z"/>
<path class="st32" d="M542.8,46.2l-24,93l97.7-31.4C616.5,107.8,542.8,46.2,542.8,46.2z M518.8,139.2l-24,93l97.7-31.4L518.8,139.2
	L518.8,139.2z"/>
<path class="st33" d="M445,77.6l73.8,61.6l24-93L445,77.6z"/>
<path class="st34" d="M542.8,46.2l73.8,61.6l24-93L542.8,46.2z"/>
<path class="st35" d="M616.6,107.8l24-93l73.7,61.6L616.6,107.8z"/>
<path class="st36" d="M738.3-16.7l-24,93L812,45l-73.7-61.6V-16.7z M909.8,13.5L812,45l73.8,61.6L909.8,13.5L909.8,13.5z"/>
<path class="st37" d="M640.6,14.8l73.8,61.6l24-93L640.6,14.8z"/>
<path class="st38" d="M738.3-16.7L812,45l24-93L738.3-16.7z"/>
<path class="st39" d="M812,45l24-93l73.7,61.6L812,45z"/>
<path class="st40" d="M909.8,13.5l24-93l73.7,61.6L909.8,13.5z"/>
<path class="st41" d="M836-48l73.8,61.6l24-93L836-48z"/>
<path class="st42" d="M-91.4,421l24-93l73.7,61.6L-91.4,421z"/>
<path class="st43" d="M30.3,296.5l-24,93L104,358l-73.7-61.6L30.3,296.5z M-14,1164.5l-24,93l97.7-31.4L-14,1164.5z"/>
<g>
	<path id="B" class="st44" d="M225.7,233.6l-24,93l97.7-31.4L225.7,233.6z M181.4,1101.6l-24,93l97.7-31.4L181.4,1101.6z"/>
</g>
<path class="st45" d="M225.7,233.6L128,265l73.8,61.6l24-93H225.7z M181.4,1101.6L83.7,1133l73.8,61.6l24-93H181.4z"/>
<path class="st46" d="M397.2,263.8l24-93l73.7,61.6L397.2,263.8z"/>
<path class="st47" d="M323.4,202.2l73.8,61.6l24-93L323.4,202.2z"/>
<path class="st48" d="M421.2,170.7l73.8,61.6l24-93L421.2,170.7z"/>
<path class="st49" d="M592.6,201l24-93l73.7,61.6L592.6,201z"/>
<path class="st50" d="M616.6,107.8L519,139.3l73.8,61.6l24-93L616.6,107.8z M401,945.6l-24,93l97.7-31.4L401,945.6z"/>
<path class="st51" d="M1374.4-50.6l-97.7,31.4l73.8,61.6l24-93H1374.4z M1448,11l-24,93l97.7-31.4L1448,11z M714.3,76.4l-97.7,31.4
	l73.8,61.6L714.3,76.4L714.3,76.4z"/>
<path class="st52" d="M690.4,169.5l24-93L788,138L690.4,169.5z"/>
<path class="st53" d="M788,138l24-93l73.7,61.6L788,138z"/>
<path class="st54" d="M714.3,76.4L788,138l24-93L714.3,76.4z"/>
<path class="st55" d="M885.8,106.6l24-93l73.7,61.6L885.8,106.6z"/>
<path class="st56" d="M983.5,75.2l24-93l73.7,61.6L983.5,75.2z"/>
<path class="st57" d="M909.8,13.5l73.8,61.6l24-93L909.8,13.5z"/>
<path class="st58" d="M1007.5-18l73.8,61.6l24-93L1007.5-18z"/>
<path class="st59" d="M1081.2,43.7l24-93l73.7,61.6L1081.2,43.7z"/>
<path class="st60" d="M1179,12.3l24-93l73.7,61.6L1179,12.3z"/>
<path class="st61" d="M1105.2-49.4l73.8,61.6l24-93L1105.2-49.4z"/>
<path class="st62" d="M-17.7,482.7l24-93L80,451.2L-17.7,482.7z"/>
<path class="st63" d="M6.3,389.6L-91.4,421l73.8,61.6l24-93H6.3z M8.1,730.6L-89.6,762l73.8,61.6l24-93H8.1z M34,978.3l-24,93
	l97.7-31.4L34,978.3z"/>
<path class="st64" d="M80,451.2l24-93l73.7,61.6L80,451.2z"/>
<g>
	<path id="B_00000150793910175341852560000017995705449659089808_" class="st65" d="M201.7,326.7l-24,93l97.7-31.4L201.7,326.7z
		 M157.4,1194.7l-24,93l97.7-31.4L157.4,1194.7z"/>
</g>
<path class="st66" d="M299.5,295.3l-97.7,31.4l73.7,61.6L299.5,295.3z M-17.5,482.7l-24,93L56,544.3l-73.7-61.6H-17.5z M131.8,946.9
	L34,978.3l73.8,61.6L131.8,946.9z"/>
<path class="st67" d="M275.5,388.3l24-93l73.7,61.6L275.5,388.3z"/>
<path class="st68" d="M373.2,357l24-93l73.7,61.6L373.2,357z"/>
<path class="st69" d="M397.2,263.8l-97.7,31.4l73.8,61.6L397.2,263.8L397.2,263.8z M471,325.4L373.2,357l73.8,61.6l24-93V325.4z"/>
<path class="st70" d="M495,232.4l-97.7,31.4l73.8,61.6L495,232.4L495,232.4z M351,791l-24,93l97.7-31.4L351,791z"/>
<path class="st71" d="M471,325.5l24-93l73.7,61.6L471,325.5z"/>
<path class="st72" d="M568.7,294l24-93l73.7,61.6L568.7,294z"/>
<path class="st73" d="M495,232.4l73.8,61.6l24-93L495,232.4z"/>
<path class="st74" d="M592.6,201l73.8,61.6l24-93L592.6,201z"/>
<path class="st75" d="M666.4,262.6l24-93L764,231L666.4,262.6z"/>
<path class="st76" d="M764,231l24-93l73.7,61.6L764,231z"/>
<path class="st77" d="M690.4,169.5L764,231l24-93L690.4,169.5z"/>
<path class="st78" d="M788,138l73.8,61.6l24-93L788,138z"/>
<path class="st79" d="M861.8,199.7l24-93l73.7,61.6L861.8,199.7z"/>
<path class="st80" d="M959.5,168.2l24-93l73.7,61.6L959.5,168.2z"/>
<path class="st81" d="M1252.7,74l-97.7,31.4l73.8,61.6l24-93H1252.7z M983.5,75.2l-97.7,31.4l73.8,61.6L983.5,75.2L983.5,75.2z
	 M448.8,759.4L351,791l73.8,61.6l24-93V759.4z"/>
<path class="st82" d="M983.5,75.2l73.8,61.6l24-93L983.5,75.2z"/>
<path class="st83" d="M1057.3,136.8l24-93l73.7,61.6L1057.3,136.8z"/>
<path class="st84" d="M1155,105.4l24-93l73.7,61.6L1155,105.4z"/>
<path class="st85" d="M1081.2,43.7l73.8,61.6l24-93L1081.2,43.7z"/>
<path class="st86" d="M1179,12.3l73.8,61.6l24-93L1179,12.3z"/>
<path class="st87" d="M1252.7,74l24-93l73.7,61.6L1252.7,74z"/>
<path class="st88" d="M1350.4,42.5l24-93L1448,11L1350.4,42.5z"/>
<path class="st89" d="M1374.4-50.6L1448,11l24-93L1374.4-50.6z"/>
<path class="st90" d="M1448,11l24-93l73.7,61.6L1448,11z"/>
<path class="st91" d="M56,544.3l24-93l73.7,61.6L56,544.3z"/>
<path class="st92" d="M-17.7,482.7L56,544.3l24-93L-17.7,482.7z"/>
<path class="st93" d="M80,451.2l73.8,61.6l24-93L80,451.2z"/>
<path class="st94" d="M153.8,513l24-93l73.8,61.6L153.8,513z"/>
<path class="st95" d="M251.5,481.4l24-93l73.8,61.6L251.5,481.4z"/>
<path class="st96" d="M177.8,419.8l73.8,61.6l24-93L177.8,419.8z"/>
<path class="st97" d="M275.5,388.3l73.8,61.6l24-93L275.5,388.3z"/>
<path class="st98" d="M349.2,450l24-93l73.7,61.6L349.2,450z"/>
<path class="st99" d="M447,418.5l24-93l73.7,61.6L447,418.5z"/>
<path class="st100" d="M568.7,294L471,325.5l73.7,61.6l24-93V294z M524.4,1162l-97.7,31.4l73.8,61.6L524.4,1162L524.4,1162z"/>
<path class="st101" d="M666.4,262.6L568.7,294l73.8,61.6L666.4,262.6L666.4,262.6z M568.7,294l-24,93l97.7-31.4L568.7,294z"/>
<path class="st102" d="M642.4,355.7l24-93l73.7,61.6L642.4,355.7z"/>
<path class="st103" d="M666.4,262.6l73.8,61.6l24-93L666.4,262.6z"/>
<path class="st104" d="M764,231l-24,93l97.7-31.4L764,231z M622,1130.4l-24,93l98-31.4l-73.7-61.6H622z"/>
<path class="st105" d="M838,292.8l24-93l73.7,61.6L838,292.8z"/>
<path class="st106" d="M764,231l73.8,61.6l24-93L764,231z"/>
<path class="st107" d="M1057.3,136.8l-97.7,31.4l73.8,61.6L1057.3,136.8L1057.3,136.8z M959.6,168.2l-97.7,31.4l73.8,61.6
	L959.6,168.2L959.6,168.2z"/>
<path class="st108" d="M959.5,168.3l-24,93l97.7-31.4l-73.8-61.6L959.5,168.3z M1523.7,413.6L1426,445l73.8,61.6l24-93H1523.7z"/>
<path class="st109" d="M1057.3,136.8l-24,93l97.7-31.4L1057.3,136.8L1057.3,136.8z M1450,352l-24,93l97.7-31.4L1450,352z
	 M692.2,510.4l-97.7,31.4l73.8,61.6L692.2,510.4L692.2,510.4z"/>
<path class="st110" d="M1057.3,136.8l73.8,61.6l24-93L1057.3,136.8z"/>
<path class="st111" d="M1131,198.4l24-93l73.7,61.6L1131,198.4z"/>
<path class="st112" d="M1228.7,167l24-93l73.7,61.6L1228.7,167z"/>
<path class="st113" d="M1252.7,74l73.8,61.6l24-93L1252.7,74z"/>
<path class="st114" d="M1326.5,135.6l24-93l73.7,61.6L1326.5,135.6z"/>
<path class="st115" d="M1350.4,42.5l73.8,61.6l24-93L1350.4,42.5z"/>
<path class="st116" d="M1448,11l73.8,61.6l24-93L1448,11z"/>
<path class="st117" d="M1643.6-51.8L1546-20.4l-24,93l97.7-31.4L1643.6-51.8L1643.6-51.8z"/>
<path class="st118" d="M-65.6,668.8l24-93L32,637.4L-65.6,668.8z"/>
<path class="st119" d="M56,544.3l-24,93l97.7-31.4L56,544.3z M82,792l-24,93l97.7-31.4L82,792z"/>
<path class="st120" d="M56,544.3l73.8,61.6l24-93L56,544.3z"/>
<path class="st121" d="M129.8,606l24-93l73.7,61.6L129.8,606z"/>
<path class="st122" d="M227.6,574.5l24-93l73.7,61.6L227.6,574.5z"/>
<path class="st123" d="M153.8,513l73.8,61.6l24-93L153.8,513z"/>
<path class="st124" d="M251.5,481.4l73.8,61.6l24-93L251.5,481.4z"/>
<path class="st125" d="M325.3,543l24-93l73.7,61.6L325.3,543z"/>
<path class="st126" d="M423,511.6l24-93l73.7,61.6L423,511.6z"/>
<path class="st127" d="M349.2,450l73.8,61.6l24-93L349.2,450z"/>
<path class="st128" d="M447,418.5l73.8,61.6l24-93L447,418.5z"/>
<path class="st129" d="M520.7,480.2l24-93l73.7,61.6L520.7,480.2z"/>
<path class="st130" d="M618.4,448.7l24-93l73.7,61.6L618.4,448.7z"/>
<path class="st131" d="M544.7,387l73.8,61.6l24-93L544.7,387z"/>
<path class="st132" d="M642.4,355.7l73.8,61.6l24-93L642.4,355.7z"/>
<path class="st133" d="M716.2,417.3l24-93L814,386L716.2,417.3z"/>
<path class="st134" d="M814,386l24-93l73.7,61.6L814,386z"/>
<path class="st135" d="M740,324.2l74,61.8l24-93L740,324.2z"/>
<path class="st136" d="M935.6,261.3L838,292.8l73.8,61.6l24-93L935.6,261.3z M1549.6,661.3l-24,93l97.7-31.4L1549.6,661.3z"/>
<path class="st137" d="M911.6,354.4l24-93l73.7,61.6L911.6,354.4z"/>
<path class="st138" d="M1009.3,323l24-93l73.7,61.6L1009.3,323z"/>
<path class="st139" d="M935.6,261.3l73.8,61.6l24-93L935.6,261.3z"/>
<path class="st140" d="M1033.3,230l73.8,61.6l24-93L1033.3,230z"/>
<path class="st141" d="M1107,291.5l24-93l73.7,61.6L1107,291.5z"/>
<path class="st142" d="M1204.8,260l24-93l73.7,61.6L1204.8,260z"/>
<path class="st143" d="M1131,198.4l73.8,61.6l24-93L1131,198.4z"/>
<path class="st144" d="M1228.7,167l73.8,61.6l24-93L1228.7,167z"/>
<path class="st145" d="M1302.5,228.6l24-93l73.7,61.6L1302.5,228.6z"/>
<path class="st146" d="M1424.2,104l-24,93l97.7-31.4C1497.9,165.6,1424.2,104,1424.2,104z M1498,165.6l-24,93l97.7-31.4L1498,165.6z
	"/>
<path class="st147" d="M1326.5,135.6l73.8,61.6l24-93L1326.5,135.6z"/>
<path class="st148" d="M1424.2,104l73.8,61.6l24-93L1424.2,104z"/>
<path class="st149" d="M1498,165.8l24-93l73.7,61.6L1498,165.8z"/>
<path class="st150" d="M1522,72.7l73.8,61.6l24-93L1522,72.7z"/>
<path class="st151" d="M-89.6,762l24-93L8,730.5L-89.6,762z"/>
<path class="st152" d="M-65.6,668.8L8,730.5l24-93L-65.6,668.8z"/>
<path class="st153" d="M8,730.5l24-93l74,61.5L8,730.5z"/>
<path class="st154" d="M106,699l24-93l73.7,61.6L106,699z"/>
<path class="st155" d="M129.8,606l73.8,61.6l24-93L129.8,606z"/>
<path class="st156" d="M203.6,667.6l24-93l73.8,61.6L203.6,667.6z"/>
<path class="st157" d="M301.3,636l24-93l73.8,61.6L301.3,636z"/>
<path class="st158" d="M227.6,574.5l73.8,61.6l24-93L227.6,574.5z"/>
<path class="st159" d="M325.3,543l73.8,61.6l24-93L325.3,543z"/>
<path class="st160" d="M399,604.7l24-93l73.7,61.6L399,604.7z"/>
<path class="st161" d="M496.7,573.3l24-93l73.7,61.6L496.7,573.3z"/>
<path class="st162" d="M423,511.6l73.8,61.6l24-93L423,511.6z"/>
<path class="st163" d="M520.7,480.2l73.8,61.6l24-93L520.7,480.2z"/>
<path class="st164" d="M594.5,541.8l24-93l73.7,61.6L594.5,541.8z"/>
<path class="st165" d="M692.2,510.4l24-93L790,479L692.2,510.4z"/>
<path class="st166" d="M618.4,448.7l73.8,61.6l24-93L618.4,448.7z"/>
<path class="st167" d="M716.2,417.3L790,479l24-93L716.2,417.3z"/>
<path class="st168" d="M790,479l24-93l73.7,61.6L790,479z"/>
<path class="st169" d="M887.6,447.5l24-93l73.7,61.6L887.6,447.5z"/>
<path class="st170" d="M814,386l73.8,61.6l24-93L814,386z"/>
<path class="st171" d="M911.6,354.4l73.8,61.6l24-93L911.6,354.4z"/>
<path class="st172" d="M1009.3,323l-24,93l97.7-31.4L1009.3,323z M1475.8,599.8l-97.7,31.4l73.8,61.6l24-93H1475.8z"/>
<path class="st173" d="M1083,384.6l24-93l73.7,61.6L1083,384.6z"/>
<path class="st174" d="M1009.3,323l73.8,61.6l24-93L1009.3,323z"/>
<path class="st175" d="M1107,291.5l73.8,61.6l24-93L1107,291.5z"/>
<path class="st176" d="M1204.8,260l-24,93l97.7-31.4L1204.8,260z M989,1097.8l-97.7,31.4L965,1191l24-93V1097.8z"/>
<path class="st177" d="M1302.5,228.7l-24,93l97.7-31.4L1302.5,228.7L1302.5,228.7z M327,884l-24,93l97.7-31.4L327,884z"/>
<path class="st178" d="M1204.8,260l73.8,61.6l24-93L1204.8,260z"/>
<path class="st179" d="M1302.5,228.7l73.8,61.6l24-93L1302.5,228.7z"/>
<path class="st180" d="M1376.2,290.3l24-93L1474,259L1376.2,290.3z"/>
<path class="st181" d="M1400.2,197.2l73.8,61.6l24-93L1400.2,197.2z"/>
<path class="st182" d="M1498,165.8l73.8,61.6l24-93L1498,165.8z"/>
<path class="st183" d="M-15.8,823.5l24-93L82,792L-15.8,823.5z"/>
<path class="st184" d="M82,792l24-93l73.7,61.6L82,792z"/>
<path class="st185" d="M106,699L8,730.5L82,792L106,699z M58,885.2l-24,93l97.7-31.4L58,885.2z"/>
<path class="st186" d="M106,699l73.8,61.6l24-93L106,699z"/>
<path class="st187" d="M277.3,729.2l24-93l73.7,61.6L277.3,729.2z"/>
<path class="st188" d="M203.6,667.6l73.8,61.6l24-93L203.6,667.6z"/>
<path class="st189" d="M301.3,636l73.8,61.6l24-93L301.3,636z"/>
<path class="st190" d="M399,604.7l-24,93l97.7-31.4L399,604.7z M424.8,852.5L327,884l73.8,61.6L424.8,852.5L424.8,852.5z"/>
<path class="st191" d="M472.8,666.3l24-93l73.7,61.6L472.8,666.3z"/>
<path class="st192" d="M1547.7,320.5L1450,352l73.8,61.6l24-93L1547.7,320.5z M496.7,573.3L399,604.7l73.8,61.6l24-93H496.7z"/>
<path class="st193" d="M496.7,573.3l73.8,61.6l24-93L496.7,573.3z"/>
<path class="st194" d="M570.5,635l24-93l73.7,61.6L570.5,635z"/>
<path class="st195" d="M668.2,603.5l24-93L766,572L668.2,603.5z"/>
<path class="st196" d="M692.2,510.4L766,572l24-93L692.2,510.4z"/>
<path class="st197" d="M1254.5,414.8l-24,93l97.7-31.4L1254.5,414.8z M790,479l-24,93l97.7-31.4L790,479z"/>
<path class="st198" d="M863.7,540.6l24-93l73.7,61.6L863.7,540.6z"/>
<path class="st199" d="M790,479l73.8,61.6l24-93L790,479z"/>
<path class="st200" d="M985.4,416l-97.7,31.4l73.8,61.6L985.4,416L985.4,416z M1133,539.3l-97.7,31.4l73.8,61.6l24-93H1133z"/>
<path class="st201" d="M961.4,509l24-93l73.7,61.6L961.4,509z"/>
<path class="st202" d="M1083,384.6l-24,93l97.7-31.4L1083,384.6z M961.4,509l-24,93l97.7-31.4L961.4,509L961.4,509z"/>
<path class="st203" d="M985.4,416l73.8,61.6l24-93L985.4,416z"/>
<path class="st204" d="M1083,384.6l73.8,61.6l24-93L1083,384.6z"/>
<path class="st205" d="M1180.8,353.2l-24,93l97.7-31.4L1180.8,353.2z M743.8,1006l-24,93l97.7-31.4L743.8,1006z"/>
<path class="st206" d="M1254.5,414.8l24-93l73.7,61.6L1254.5,414.8z"/>
<path class="st207" d="M1474,258.8l-97.7,31.4L1450,352l24-93V258.8z M1278.6,321.8l-97.7,31.4l73.8,61.6l24-93H1278.6z"/>
<path class="st208" d="M1278.5,321.7l73.8,61.6l24-93L1278.5,321.7z"/>
<path class="st209" d="M1352.3,383.4l24-93L1450,352L1352.3,383.4z"/>
<path class="st210" d="M1450,352l24-93l73.7,61.6L1450,352z"/>
<path class="st211" d="M1474,258.8l73.8,61.6l24-93L1474,258.8z"/>
<path class="st212" d="M1547.7,320.5l24-93l73.7,61.6L1547.7,320.5z"/>
<path class="st213" d="M155.6,853.7l24-93l73.7,61.6L155.6,853.7z"/>
<path class="st214" d="M179.6,760.7l73.8,61.6l24-93L179.6,760.7z"/>
<path class="st215" d="M253.4,822.3l24-93L351,791L253.4,822.3z"/>
<path class="st216" d="M351,791l24-93l73.8,61.6L351,791z"/>
<path class="st217" d="M277.3,729.2L351,791l24-93L277.3,729.2z"/>
<path class="st218" d="M375,697.8l73.8,61.6l24-93L375,697.8z"/>
<path class="st219" d="M448.8,759.4l24-93l73.7,61.6L448.8,759.4z"/>
<path class="st220" d="M546.5,728l24-93l73.7,61.6L546.5,728z"/>
<path class="st221" d="M472.8,666.3l73.8,61.6l24-93L472.8,666.3z"/>
<path class="st222" d="M570.5,635l73.8,61.6l24-93L570.5,635z"/>
<path class="st223" d="M644.2,696.5l24-93L742,665L644.2,696.5z"/>
<path class="st224" d="M742,665l24-93l73.7,61.6L742,665z"/>
<path class="st225" d="M668.2,603.5L742,665l24-93L668.2,603.5z"/>
<path class="st226" d="M766,572l73.8,61.6l24-93L766,572z"/>
<path class="st227" d="M839.7,633.7l24-93l73.7,61.6L839.7,633.7z"/>
<path class="st228" d="M863.7,540.6l73.8,61.6l24-93L863.7,540.6z"/>
<path class="st229" d="M961.4,509l73.8,61.6l24-93L961.4,509z"/>
<path class="st230" d="M1035,570.8l24-93l73.7,61.6L1035,570.8z"/>
<path class="st231" d="M1133,539.3l24-93l73.7,61.6L1133,539.3z"/>
<path class="st232" d="M1059,477.7l73.8,61.6l24-93L1059,477.7z"/>
<path class="st233" d="M1156.8,446.3l73.8,61.6l24-93L1156.8,446.3z"/>
<path class="st234" d="M1328.3,476.5l24-93L1426,445L1328.3,476.5z"/>
<path class="st235" d="M1254.5,414.8l73.8,61.6l24-93L1254.5,414.8z"/>
<path class="st236" d="M1352.3,383.4L1426,445l24-93L1352.3,383.4z"/>
<path class="st237" d="M1547.7,320.5l-24,93l97.7-31.4L1547.7,320.5z M498.6,914L401,945.6l73.8,61.6l24-93L498.6,914z"/>
<path class="st238" d="M1547.7,320.5l73.8,61.6l24-93L1547.7,320.5z"/>
<path class="st239" d="M-63.8,1009.7l24-93L34,978.3L-63.8,1009.7z"/>
<path class="st240" d="M-39.8,916.6L34,978.3l24-93L-39.8,916.6z"/>
<path class="st241" d="M131.7,946.8l24-93l73.8,61.6L131.7,946.8z"/>
<path class="st242" d="M58,885.2l73.8,61.6l24-93L58,885.2z"/>
<path class="st243" d="M155.6,853.7l73.8,61.6l24-93L155.6,853.7z"/>
<path class="st244" d="M229.4,915.4l24-93L327,884L229.4,915.4z"/>
<path class="st245" d="M253.4,822.3L327,884l24-93L253.4,822.3z"/>
<path class="st246" d="M424.8,852.5l24-93l73.7,61.6L424.8,852.5z"/>
<path class="st247" d="M522.6,821l24-93l73.7,61.6L522.6,821z"/>
<path class="st248" d="M448.8,759.4l73.8,61.6l24-93L448.8,759.4z"/>
<path class="st249" d="M546.5,728l73.8,61.6l24-93L546.5,728z"/>
<path class="st250" d="M620.3,789.6l24-93l73.7,61.6L620.3,789.6z"/>
<path class="st251" d="M718,758.2l24-93l73.7,61.6L718,758.2z"/>
<path class="st252" d="M742,665l-97.7,31.4l73.8,61.6L742,665L742,665z M1160.5,1128l-24,93l97.7-31.4L1160.5,1128z"/>
<path class="st253" d="M742,665l73.8,61.6l24-93L742,665z"/>
<path class="st254" d="M815.7,726.7l24-93l73.7,61.6L815.7,726.7z"/>
<path class="st255" d="M913.4,695.3l24-93l73.7,61.6L913.4,695.3z"/>
<path class="st256" d="M839.7,633.7l73.8,61.6l24-93L839.7,633.7z"/>
<path class="st257" d="M937.4,602.2l73.8,61.6l24-93L937.4,602.2z"/>
<path class="st258" d="M1230.6,508l-24,93l97.7-31.4L1230.6,508L1230.6,508z M1035.2,571l-24,93l97.7-31.4L1035.2,571z"/>
<path class="st259" d="M1109,632.4l24-93l73.7,61.6L1109,632.4z"/>
<path class="st260" d="M1133,539.3l73.8,61.6l24-93L1133,539.3z"/>
<path class="st261" d="M1304.3,569.5l24-93L1402,538L1304.3,569.5z"/>
<path class="st262" d="M1230.6,508l73.8,61.6l24-93L1230.6,508z"/>
<path class="st263" d="M1328.3,476.5L1402,538l24-93L1328.3,476.5z"/>
<path class="st264" d="M1426,445l-24,93l97.7-31.4L1426,445z M1208.4,942l-24,93l97.7-31.4L1208.4,942z"/>
<path class="st265" d="M1499.8,506.7l24-93l73.7,61.6L1499.8,506.7z"/>
<path class="st266" d="M1523.7,413.6l73.8,61.6l24-93L1523.7,413.6z"/>
<path class="st267" d="M34,978.3l-97.7,31.4l73.8,61.6l24-93L34,978.3z M10,1071.3l-97.7,31.4l73.8,61.6l24-93H10z"/>
<path class="st268" d="M205.4,1008.5l24-93L303,977L205.4,1008.5z"/>
<path class="st269" d="M131.7,946.8l73.8,61.6l24-93L131.7,946.8z"/>
<path class="st270" d="M229.4,915.4L303,977l24-93L229.4,915.4z"/>
<path class="st271" d="M401,945.6l24-93l73.8,61.6L401,945.6z"/>
<path class="st272" d="M424.8,852.5l73.8,61.6l24-93L424.8,852.5z"/>
<path class="st273" d="M498.6,914l24-93l73.7,61.6L498.6,914z"/>
<path class="st274" d="M596.3,882.7l24-93l73.7,61.6L596.3,882.7z"/>
<path class="st275" d="M522.6,821l73.8,61.6l24-93L522.6,821z"/>
<path class="st276" d="M620.3,789.6l73.8,61.6l24-93L620.3,789.6z"/>
<path class="st277" d="M694,851.3l24-93l73.7,61.6L694,851.3z"/>
<path class="st278" d="M791.8,819.8l24-93l73.7,61.6L791.8,819.8z"/>
<path class="st279" d="M718,758.2l73.8,61.6l24-93L718,758.2z"/>
<path class="st280" d="M815.7,726.7l73.8,61.6l24-93L815.7,726.7z"/>
<path class="st281" d="M889.5,788.4l24-93l73.7,61.6L889.5,788.4z"/>
<path class="st282" d="M987.2,757l24-93l73.7,61.6L987.2,757z"/>
<path class="st283" d="M913.4,695.3l73.8,61.6l24-93L913.4,695.3z"/>
<path class="st284" d="M1011.2,664l73.8,61.6l24-93L1011.2,664z"/>
<path class="st285" d="M1085,725.5l24-93l73.7,61.6L1085,725.5z"/>
<path class="st286" d="M1182.6,694l24-93l73.7,61.6L1182.6,694z"/>
<path class="st287" d="M1109,632.4l73.8,61.6l24-93L1109,632.4z"/>
<path class="st288" d="M1206.6,601l73.8,61.6l24-93L1206.6,601z"/>
<path class="st289" d="M1280.4,662.6l24-93l73.7,61.6L1280.4,662.6z"/>
<path class="st290" d="M1378,631.2l24-93l73.7,61.6L1378,631.2z"/>
<path class="st291" d="M1304.3,569.5l73.8,61.6l24-93L1304.3,569.5z"/>
<path class="st292" d="M1402,538l73.8,61.6l24-93L1402,538z"/>
<path class="st293" d="M1475.8,599.7l24-93l73.7,61.6L1475.8,599.7z"/>
<path class="st294" d="M1499.8,506.7l73.8,61.6l24-93L1499.8,506.7z"/>
<path class="st295" d="M-14,1164.4l24-93l73.7,61.6L-14,1164.4z"/>
<path class="st296" d="M126.2-75.8l-24,93L200-14.2l-73.7-61.6L126.2-75.8z M107.7,1040L10,1071.3l73.8,61.6l24-93L107.7,1040z"/>
<path class="st297" d="M181.5,1101.5l24-93l73.8,61.6L181.5,1101.5z"/>
<path class="st298" d="M107.7,1040l73.8,61.6l24-93L107.7,1040z"/>
<path class="st299" d="M205.4,1008.5l73.8,61.6l24-93L205.4,1008.5z"/>
<path class="st300" d="M279.2,1070l24-93l73.7,61.6L279.2,1070z"/>
<path class="st301" d="M303,977l73.8,61.6l24-93L303,977z"/>
<path class="st302" d="M474.6,1007.2l24-93l73.7,61.6L474.6,1007.2z"/>
<path class="st303" d="M572.3,975.8l24-93l73.7,61.6L572.3,975.8z"/>
<path class="st304" d="M498.6,914l73.8,61.6l24-93L498.6,914z"/>
<path class="st305" d="M596.3,882.7l73.8,61.6l24-93L596.3,882.7z"/>
<path class="st306" d="M670,944.3l24-93l73.7,61.6L670,944.3z"/>
<path class="st307" d="M767.8,913l24-93l73.7,61.6L767.8,913z"/>
<path class="st308" d="M694,851.3l73.8,61.6l24-93L694,851.3z"/>
<path class="st309" d="M791.8,819.8l73.8,61.6l24-93L791.8,819.8z"/>
<path class="st310" d="M865.5,881.5l24-93l73.7,61.6L865.5,881.5z"/>
<path class="st311" d="M963.2,850l24-93l73.7,61.6L963.2,850z"/>
<path class="st312" d="M889.5,788.4l73.8,61.6l24-93L889.5,788.4z"/>
<path class="st313" d="M987.2,757l73.8,61.6l24-93L987.2,757z"/>
<path class="st314" d="M1061,818.6l24-93l73.7,61.6L1061,818.6z"/>
<path class="st315" d="M1158.7,787l24-93l73.7,61.6L1158.7,787z"/>
<path class="st316" d="M1085,725.5l73.8,61.6l24-93L1085,725.5z"/>
<path class="st317" d="M1182.6,694l73.8,61.6l24-93L1182.6,694z"/>
<path class="st318" d="M1256.4,755.7l24-93l73.7,61.6L1256.4,755.7z"/>
<path class="st319" d="M1354,724.3l24-93l73.7,61.6L1354,724.3z"/>
<path class="st320" d="M1280.4,662.6l73.8,61.6l24-93L1280.4,662.6z"/>
<path class="st321" d="M1451.8,692.8l24-93l73.7,61.6L1451.8,692.8z"/>
<path class="st322" d="M1549.5,661.4l24-93l73.7,61.6L1549.5,661.4z"/>
<path class="st323" d="M1475.8,599.7l73.8,61.6l24-93L1475.8,599.7z"/>
<path class="st324" d="M255.2,1163.2l24-93l73.7,61.6L255.2,1163.2z"/>
<path class="st325" d="M181.5,1101.5l73.8,61.6l24-93L181.5,1101.5z"/>
<path class="st326" d="M279.2,1070l73.8,61.6l24-93L279.2,1070z"/>
<path class="st327" d="M353,1131.7l24-93l73.8,61.6L353,1131.7z"/>
<path class="st328" d="M450.6,1100.3l24-93l73.7,61.6L450.6,1100.3z"/>
<path class="st329" d="M377,1038.7l73.8,61.6l24-93L377,1038.7z"/>
<path class="st330" d="M474.6,1007.2l73.8,61.6l24-93L474.6,1007.2z"/>
<path class="st331" d="M548.4,1069l24-93l73.7,61.6L548.4,1069z"/>
<path class="st332" d="M646,1037.4l24-93l73.7,61.6L646,1037.4z"/>
<path class="st333" d="M572.3,975.8l73.8,61.6l24-93L572.3,975.8z"/>
<path class="st334" d="M670,944.3l73.8,61.6l24-93L670,944.3z"/>
<path class="st335" d="M743.8,1006l24-93l73.7,61.6L743.8,1006z"/>
<path class="st336" d="M841.5,974.5l24-93l73.7,61.6L841.5,974.5z"/>
<path class="st337" d="M767.8,913l73.8,61.6l24-93L767.8,913z"/>
<path class="st338" d="M865.5,881.5l73.8,61.6l24-93L865.5,881.5z"/>
<path class="st339" d="M939.3,943l24-93l73.7,61.6L939.3,943z"/>
<path class="st340" d="M1037,911.7l24-93l73.7,61.6L1037,911.7z"/>
<path class="st341" d="M963.2,850l73.8,61.6l24-93L963.2,850z"/>
<path class="st342" d="M1061,818.6l73.8,61.6l24-93L1061,818.6z"/>
<path class="st343" d="M1134.7,880.2l24-93l73.7,61.6L1134.7,880.2z"/>
<path class="st344" d="M1232.4,848.8l24-93l73.7,61.6L1232.4,848.8z"/>
<path class="st345" d="M1158.7,787l73.8,61.6l24-93L1158.7,787z"/>
<path class="st346" d="M1256.4,755.7l73.8,61.6l24-93L1256.4,755.7z"/>
<path class="st347" d="M1330,817.3l24-93l74,61.7L1330,817.3z"/>
<path class="st348" d="M1428,786l24-93l73.7,61.6L1428,786z"/>
<path class="st349" d="M1354,724.3l74,61.7l24-93L1354,724.3z"/>
<path class="st350" d="M1451.8,692.8l73.8,61.6l24-93L1451.8,692.8z"/>
<path class="st351" d="M1549.5,661.4l73.8,61.6l24-93L1549.5,661.4z"/>
<path class="st352" d="M231.2,1256.3l24-93l73.7,61.6L231.2,1256.3z"/>
<path class="st353" d="M157.5,1194.6l73.8,61.6l24-93L157.5,1194.6z"/>
<path class="st354" d="M255.2,1163.2l73.8,61.6l24-93L255.2,1163.2z"/>
<path class="st355" d="M329,1224.8l24-93l73.7,61.6L329,1224.8z"/>
<path class="st356" d="M426.7,1193.4l24-93l73.7,61.6L426.7,1193.4z"/>
<path class="st357" d="M353,1131.7l73.8,61.6l24-93L353,1131.7z"/>
<path class="st358" d="M450.6,1100.3l73.8,61.6l24-93L450.6,1100.3z"/>
<path class="st359" d="M524.4,1162l24-93l73.7,61.6L524.4,1162z"/>
<path class="st360" d="M622,1130.5l24-93l73.7,61.6L622,1130.5z"/>
<path class="st361" d="M548.4,1069l73.8,61.6l24-93L548.4,1069z"/>
<path class="st362" d="M646,1037.4l73.8,61.6l24-93L646,1037.4z"/>
<path class="st363" d="M817.6,1067.6l24-93l73.7,61.6L817.6,1067.6z"/>
<path class="st364" d="M743.8,1006l73.8,61.6l24-93L743.8,1006z"/>
<path class="st365" d="M841.5,974.5l73.8,61.6l24-93L841.5,974.5z"/>
<path class="st366" d="M939.3,943l-24,93l97.7-31.4L939.3,943L939.3,943z M1013.1,1004.6l-24,93l97.7-31.4L1013.1,1004.6
	L1013.1,1004.6z"/>
<path class="st367" d="M1013,1004.7l24-93l73.7,61.6L1013,1004.7z"/>
<path class="st368" d="M939.3,943l73.8,61.6l24-93L939.3,943z"/>
<path class="st369" d="M1037,911.7l73.8,61.6l24-93L1037,911.7z"/>
<path class="st370" d="M1110.7,973.3l24-93l73.7,61.6L1110.7,973.3z"/>
<path class="st371" d="M1208.4,942l24-93l73.7,61.6L1208.4,942z"/>
<path class="st372" d="M1134.7,880.2l73.8,61.6l24-93L1134.7,880.2z"/>
<path class="st373" d="M1232.4,848.8l73.8,61.6l24-93L1232.4,848.8z"/>
<path class="st374" d="M1306.2,910.4l24-93L1404,879L1306.2,910.4z"/>
<path class="st375" d="M1404,879l24-93l73.7,61.6L1404,879z"/>
<path class="st376" d="M1330,817.3l74,61.7l24-93L1330,817.3z"/>
<path class="st377" d="M1428,786l73.8,61.6l24-93L1428,786z"/>
<path class="st378" d="M1501.6,847.5l24-93l73.7,61.6L1501.6,847.5z"/>
<path class="st379" d="M1525.6,754.5l73.8,61.6l24-93L1525.6,754.5z"/>
<path class="st380" d="M329,1224.8l73.8,61.6l24-93L329,1224.8z"/>
<path class="st381" d="M402.7,1286.5l24-93l73.7,61.6L402.7,1286.5z"/>
<path class="st382" d="M500.4,1255l24-93l73.7,61.6L500.4,1255z"/>
<path class="st383" d="M524.4,1162l73.8,61.6l24-93L524.4,1162z"/>
<path class="st384" d="M696,1192l24-93l73.7,61.6L696,1192z"/>
<path class="st385" d="M622,1130.5l74,61.5l24-93L622,1130.5z"/>
<path class="st386" d="M719.8,1099l73.8,61.6l24-93L719.8,1099z"/>
<path class="st387" d="M817.6,1067.6l-24,93l97.7-31.4L817.6,1067.6z M1234.3,1189.6l-97.7,31.4l73.8,61.6l24-93H1234.3z"/>
<path class="st388" d="M891.3,1129.3l24-93l73.7,61.6L891.3,1129.3z"/>
<path class="st389" d="M817.6,1067.6l73.8,61.6l24-93L817.6,1067.6z"/>
<path class="st390" d="M915.3,1036.2l73.8,61.6l24-93L915.3,1036.2z"/>
<path class="st391" d="M1086.8,1066.4l24-93l73.7,61.6L1086.8,1066.4z"/>
<path class="st392" d="M1013,1004.7l73.8,61.6l24-93L1013,1004.7z"/>
<path class="st393" d="M1110.7,973.3l73.8,61.6l24-93L1110.7,973.3z"/>
<path class="st394" d="M1282.2,1003.5l24-93L1380,972L1282.2,1003.5z"/>
<path class="st395" d="M1208.4,942l73.8,61.6l24-93L1208.4,942z"/>
<path class="st396" d="M1306.2,910.4L1380,972l24-93L1306.2,910.4z"/>
<path class="st397" d="M1380,972l24-93l73.7,61.6L1380,972z"/>
<path class="st398" d="M1477.6,940.6l24-93l73.7,61.6L1477.6,940.6z"/>
<path class="st399" d="M1404,879l73.8,61.6l24-93L1404,879z"/>
<path class="st400" d="M1501.6,847.5l73.8,61.6l24-93L1501.6,847.5z"/>
<path class="st401" d="M672,1285.2l24-93l73.7,61.6L672,1285.2z"/>
<path class="st402" d="M598,1223.6l73.8,61.6l24-93L598,1223.6z"/>
<path class="st403" d="M696,1192l73.8,61.6l24-93L696,1192z"/>
<path class="st404" d="M769.6,1253.8l24-93l73.7,61.6L769.6,1253.8z"/>
<path class="st405" d="M867.3,1222.3l24-93L965,1191L867.3,1222.3z"/>
<path class="st406" d="M793.6,1160.7l73.8,61.6l24-93L793.6,1160.7z"/>
<path class="st407" d="M965,1191l24-93l73.7,61.6L965,1191z"/>
<path class="st408" d="M1062.8,1159.5l24-93l73.7,61.6L1062.8,1159.5z"/>
<path class="st409" d="M989,1097.8l73.8,61.6l24-93L989,1097.8z"/>
<path class="st410" d="M1086.8,1066.4l73.8,61.6l24-93L1086.8,1066.4z"/>
<path class="st411" d="M1160.5,1128l24-93l73.7,61.6L1160.5,1128z"/>
<path class="st412" d="M1258.2,1096.6l24-93l73.7,61.6L1258.2,1096.6z"/>
<path class="st413" d="M1184.5,1035l73.8,61.6l24-93L1184.5,1035z"/>
<path class="st414" d="M1282.2,1003.5l73.8,61.6l24-93L1282.2,1003.5z"/>
<path class="st415" d="M1356,1065l24-93l73.7,61.6L1356,1065z"/>
<path class="st416" d="M1453.7,1033.7l24-93l73.7,61.6L1453.7,1033.7z"/>
<path class="st417" d="M1380,972l73.8,61.6l24-93L1380,972z"/>
<path class="st418" d="M1477.6,940.6l73.8,61.6l24-93L1477.6,940.6z"/>
<path class="st419" d="M1575.4,909.2l-24,93l97.7-31.4L1575.4,909.2z M1527.4,1095.4l-97.7,31.4l73.8,61.6l24-93H1527.4z"/>
<path class="st420" d="M941,1284l24-93l73.7,61.6L941,1284z"/>
<path class="st421" d="M867.3,1222.4L941,1284l24-93L867.3,1222.4z"/>
<path class="st422" d="M965,1191l73.8,61.6l24-93L965,1191z"/>
<path class="st423" d="M1038.8,1252.6l24-93l73.7,61.6L1038.8,1252.6z"/>
<path class="st424" d="M1062.8,1159.5l73.8,61.6l24-93L1062.8,1159.5z"/>
<path class="st425" d="M1160.5,1128l73.8,61.6l24-93L1160.5,1128z"/>
<path class="st426" d="M1234.3,1189.7l24-93l73.7,61.6L1234.3,1189.7z"/>
<path class="st427" d="M1332,1158.2l24-93l73.7,61.6L1332,1158.2z"/>
<path class="st428" d="M1258.2,1096.6l73.8,61.6l24-93L1258.2,1096.6z"/>
<path class="st429" d="M1356,1065l73.8,61.6l24-93L1356,1065z"/>
<path class="st430" d="M1429.7,1126.8l24-93l73.7,61.6L1429.7,1126.8z"/>
<path class="st431" d="M1527.4,1095.3l24-93l73.7,61.6L1527.4,1095.3z"/>
<path class="st432" d="M1453.7,1033.7l73.8,61.6l24-93L1453.7,1033.7z"/>
<path class="st433" d="M1551.4,1002.3l73.8,61.6l24-93L1551.4,1002.3z"/>
<path class="st434" d="M1210.3,1282.7l24-93l73.7,61.6L1210.3,1282.7z"/>
<path class="st435" d="M1308,1251.3l24-93l73.7,61.6L1308,1251.3z"/>
<path class="st436" d="M1234.3,1189.7l73.8,61.6l24-93L1234.3,1189.7z"/>
<path class="st437" d="M1332,1158.2l73.8,61.6l24-93L1332,1158.2z"/>
<path class="st438" d="M1405.7,1220l24-93l73.7,61.6L1405.7,1220z"/>
<path class="st439" d="M1503.4,1188.4l24-93l73.7,61.6L1503.4,1188.4z"/>
<path class="st440" d="M1527.4,1095.3l73.8,61.6l24-93L1527.4,1095.3z"/>
<path class="st441" d="M1405.7,1220l73.8,61.6l24-93L1405.7,1220z"/>
<path class="st442" d="M1479.5,1281.5l24-93l73.7,61.6L1479.5,1281.5z"/>
<path class="st443" d="M1503.4,1188.4l73.8,61.6l24-93L1503.4,1188.4z"/>
<path class="st444" d="M469-15.4l73.8,61.6l24-93L469-15.4z"/>
<path class="st445" d="M371.4,16l24-93L469-15.4L371.4,16z"/>
<path class="st446" d="M297.6-45.6L371.4,16l24-93L297.6-45.6z"/>
</svg>
